<?xml version="1.0" standalone="no"?>
<!DOCTYPE svg PUBLIC "-//W3C//DTD SVG 20010904//EN"
 "http://www.w3.org/TR/2001/REC-SVG-20010904/DTD/svg10.dtd">
<svg version="1.0" xmlns="http://www.w3.org/2000/svg"
 width="512.000000pt" height="512.000000pt" viewBox="0 0 512.000000 512.000000"
 preserveAspectRatio="xMidYMid meet">
<metadata>
Created by potrace 1.16, written by Peter Selinger 2001-2019
</metadata>
<g transform="translate(0.000000,512.000000) scale(0.100000,-0.100000)"
fill="#000000" stroke="none">
<path d="M2410 5114 c-19 -3 -44 -9 -55 -14 -11 -5 -48 -20 -82 -34 -170 -67
-307 -201 -389 -383 -34 -75 -48 -90 -337 -380 l-302 -303 -65 0 -65 0 548
548 c301 301 547 551 547 555 0 4 -12 7 -27 7 -23 0 -122 -95 -583 -555 l-555
-555 -65 0 -65 0 548 548 c301 301 547 551 547 555 0 4 -12 7 -27 7 -23 0
-183 -155 -981 -952 -524 -524 -962 -965 -973 -981 -11 -15 -19 -37 -17 -50 4
-18 65 38 382 353 l378 375 -93 -155 -92 -155 -288 -291 c-234 -235 -289 -295
-289 -317 0 -15 3 -27 7 -27 4 0 128 120 275 267 l268 267 -6 -69 -6 -70 -269
-271 c-217 -219 -269 -276 -269 -297 0 -15 3 -27 7 -27 4 0 125 118 269 261
l262 261 -5 -68 -5 -69 -264 -266 c-213 -214 -264 -271 -264 -292 0 -15 3 -27
7 -27 4 0 122 115 263 255 l255 255 -3 -68 -4 -67 -259 -261 c-209 -210 -259
-266 -259 -287 0 -15 3 -27 7 -27 4 0 119 111 255 247 l248 247 0 -64 0 -64
-255 -256 c-206 -207 -255 -262 -255 -283 0 -15 3 -27 7 -27 4 0 116 109 250
242 l243 242 0 -64 0 -64 -250 -251 c-201 -203 -250 -257 -250 -278 0 -15 3
-27 7 -27 4 0 114 107 245 237 l238 237 0 -64 0 -64 -245 -246 c-197 -199
-245 -252 -245 -273 0 -15 3 -27 7 -27 4 0 112 104 240 232 l233 232 0 -64 0
-64 -240 -241 c-193 -194 -240 -247 -240 -268 0 -15 3 -27 7 -27 4 0 110 102
235 227 l228 227 0 -63 0 -64 -235 -237 c-188 -189 -235 -242 -235 -264 0 -14
3 -26 7 -26 4 0 108 100 231 223 l224 222 -4 -67 -4 -68 -227 -228 c-182 -183
-227 -234 -227 -255 0 -15 3 -27 7 -27 4 0 106 98 226 218 l219 217 -6 -69 -6
-70 -220 -221 c-176 -177 -220 -227 -220 -248 0 -15 3 -27 7 -27 4 0 103 96
221 213 l214 212 -6 -70 -7 -70 -215 -216 c-171 -172 -214 -221 -214 -242 0
-15 3 -27 7 -27 4 0 101 93 216 207 l209 208 -7 -70 -7 -70 -209 -211 c-166
-168 -209 -216 -209 -237 0 -15 3 -27 7 -27 4 0 98 91 210 203 l204 202 -7
-70 -7 -70 -203 -206 c-162 -164 -204 -211 -204 -232 0 -15 3 -27 7 -27 4 0
96 88 204 196 l197 196 -5 -68 -5 -69 -199 -201 c-158 -160 -199 -206 -199
-228 0 -14 3 -26 7 -26 4 0 93 86 198 190 l191 190 -4 -67 -4 -68 -169 -171
c-93 -94 -169 -173 -169 -177 0 -4 12 -7 26 -7 20 0 58 32 165 137 l139 137 0
-65 0 -65 -56 -54 c-30 -30 -60 -63 -65 -72 -18 -33 34 -21 79 18 26 22 42 30
42 22 0 -8 10 -24 23 -36 l23 -22 2139 0 2138 0 184 183 c205 202 226 227 221
260 -3 19 -33 -6 -196 -168 l-192 -189 0 64 0 64 195 197 c155 155 195 202
195 223 0 14 -3 26 -7 26 -4 0 -94 -86 -200 -192 l-193 -192 0 64 0 64 200
201 c159 161 200 207 200 229 0 14 -3 26 -7 26 -4 0 -96 -89 -205 -197 l-198
-197 0 64 0 64 205 206 c163 165 205 212 205 233 0 15 -3 27 -7 27 -4 0 -98
-91 -210 -202 l-203 -202 0 64 0 64 210 211 c169 170 210 217 210 239 0 22 -3
25 -17 17 -10 -5 -103 -96 -208 -200 -104 -105 -193 -191 -197 -191 -5 0 -8
26 -8 57 l0 57 215 216 c173 175 215 222 215 244 0 22 -3 25 -17 17 -10 -5
-106 -98 -213 -205 -107 -108 -198 -196 -202 -196 -5 0 -8 26 -8 57 l0 57 220
221 c177 179 220 227 220 249 0 22 -3 25 -17 17 -10 -5 -108 -100 -217 -210
-110 -110 -203 -198 -208 -195 -4 3 -8 28 -8 57 l0 51 225 226 c182 183 225
232 225 254 0 22 -3 25 -17 17 -10 -5 -110 -102 -222 -215 -113 -113 -208
-203 -213 -200 -4 3 -8 28 -8 57 l0 51 230 231 c186 187 230 237 230 259 0 22
-3 25 -17 17 -10 -5 -112 -104 -228 -220 -140 -141 -212 -206 -217 -198 -4 7
-8 32 -8 57 l0 44 235 236 c190 192 235 242 235 264 0 22 -3 25 -17 17 -10 -5
-115 -107 -233 -225 -144 -145 -217 -211 -222 -203 -4 7 -8 32 -8 57 l0 44
240 241 c193 194 240 247 240 268 0 15 -3 27 -7 27 -4 0 -111 -104 -239 -231
-250 -249 -243 -245 -244 -149 0 31 19 54 245 280 197 199 245 252 245 273 0
15 -3 27 -7 27 -4 0 -114 -106 -244 -236 -255 -255 -248 -250 -249 -154 0 31
20 54 250 285 201 203 250 257 250 278 0 15 -3 27 -7 27 -4 0 -116 -108 -249
-241 l-241 -241 -7 32 c-15 77 -20 70 249 340 206 207 255 262 255 283 0 15
-3 27 -7 27 -4 0 -118 -111 -254 -246 l-246 -246 -7 32 c-15 77 -20 70 254
345 210 211 260 267 260 288 0 15 -3 27 -7 27 -4 0 -121 -113 -259 -251 l-252
-252 -7 57 -8 58 267 267 c215 216 266 273 266 294 0 15 -3 27 -7 27 -4 0
-123 -115 -264 -256 l-257 -257 -7 57 -8 58 272 272 c219 220 271 278 271 299
0 15 -3 27 -7 27 -4 0 -125 -117 -269 -261 l-261 -261 -8 57 -7 57 276 277
c224 225 276 283 276 304 0 15 -3 27 -7 27 -4 0 -127 -120 -274 -266 l-266
-266 -8 57 -7 57 281 282 c228 229 281 288 281 309 0 15 -3 27 -7 27 -4 0
-131 -124 -283 -275 l-276 -276 -23 42 -23 41 306 307 c249 250 306 312 306
334 0 15 -3 27 -7 27 -4 0 -148 -140 -320 -312 -172 -172 -314 -310 -316 -307
-2 2 -13 20 -25 39 l-21 35 344 346 c282 282 345 350 345 372 0 15 -3 27 -7
27 -4 0 -165 -158 -358 -350 l-351 -351 -23 42 -23 41 381 382 c313 314 381
387 381 409 0 15 -3 27 -7 27 -4 0 -182 -174 -395 -387 -213 -213 -389 -385
-391 -382 -2 2 -13 20 -25 39 l-21 35 419 421 c348 348 420 425 420 447 0 23
-3 26 -17 18 -10 -5 -208 -200 -440 -433 l-423 -423 -61 3 -62 4 502 502 c418
418 501 506 501 529 0 23 -3 26 -17 18 -10 -5 -252 -244 -538 -530 l-520 -521
-65 0 -65 0 548 548 c301 301 547 551 547 555 0 4 -12 7 -27 7 -23 0 -122 -95
-583 -555 l-555 -555 -65 0 -65 0 548 548 c301 301 547 551 547 555 0 4 -12 7
-27 7 -23 0 -122 -95 -583 -555 l-555 -555 -65 0 -65 0 548 548 c301 301 547
551 547 555 0 4 -12 7 -27 7 -23 0 -122 -95 -583 -555 l-555 -555 -65 0 -65 0
548 548 c301 301 547 551 547 555 0 4 -12 7 -27 7 -23 0 -118 -91 -555 -527
l-528 -528 0 65 0 65 446 445 c245 245 450 453 455 463 8 14 5 17 -18 17 -22
0 -100 -73 -455 -427 l-428 -427 0 64 0 65 346 345 c190 190 350 353 355 363
8 14 5 17 -18 17 -22 0 -85 -58 -354 -326 l-327 -326 -11 53 -12 53 266 266
c146 146 265 269 265 273 0 4 -12 7 -27 7 -21 0 -74 -48 -273 -246 l-247 -245
-18 46 -17 47 191 192 c105 106 191 195 191 199 0 4 -12 7 -26 7 -21 0 -65
-37 -204 -176 l-178 -176 -26 38 -26 38 130 131 c72 73 130 135 130 138 0 4
-12 7 -26 7 -19 0 -55 -29 -145 -117 l-120 -117 -31 32 -32 31 77 80 c42 43
77 81 77 85 0 3 -11 6 -25 6 -17 0 -48 -22 -98 -70 l-73 -69 -37 26 -37 26 37
41 c37 40 37 41 14 44 -14 2 -37 -8 -61 -27 l-38 -31 -46 17 c-29 11 -45 22
-41 30 3 10 -7 13 -38 13 -23 -1 -105 1 -182 4 -77 2 -156 2 -175 0z m-115
-464 c-198 -198 -291 -285 -293 -274 -2 9 -1 40 2 68 l7 52 217 216 c119 119
226 218 237 221 11 3 42 5 70 6 l50 1 -290 -290z m441 262 c9 -5 -102 -123
-361 -382 l-375 -375 0 65 0 65 323 323 322 323 39 -6 c22 -3 45 -9 52 -13z
m113 -53 l34 -21 -419 -419 c-448 -448 -464 -461 -464 -377 l0 43 397 397
c219 219 402 398 408 398 5 0 25 -9 44 -21z m91 -69 c11 -6 25 -20 31 -32 10
-19 -19 -51 -357 -389 l-369 -369 -65 0 -65 0 400 400 c220 220 401 400 403
400 2 0 12 -5 22 -10z m116 -154 c5 -15 -58 -83 -302 -327 l-309 -309 -65 0
-65 0 350 350 350 350 17 -22 c10 -13 20 -31 24 -42z m44 -117 l13 -51 -234
-234 -234 -234 -65 0 -65 0 285 285 c157 157 286 285 286 285 1 0 8 -23 14
-51z m-1278 -76 l-4 -68 -186 -187 -187 -188 -65 0 -65 0 255 255 c140 140
255 255 255 255 1 0 -1 -30 -3 -67z m1161 -305 l-138 -138 -65 0 -65 0 200
200 200 200 3 -62 3 -62 -138 -138z m-1250 -50 l-88 -88 -65 0 -65 0 150 150
150 150 3 -62 3 -62 -88 -88z m1350 -50 c-35 -36 -40 -38 -102 -38 l-66 0 100
100 100 101 3 -62 c3 -60 2 -63 -35 -101z m-1953 -353 l-125 -125 -65 0 -65 0
125 125 125 125 65 0 65 0 -125 -125z m200 0 l-125 -125 -65 0 -65 0 125 125
125 125 65 0 65 0 -125 -125z m200 0 l-125 -125 -65 0 -65 0 125 125 125 125
65 0 65 0 -125 -125z m200 0 l-125 -125 -65 0 -65 0 125 125 125 125 65 0 65
0 -125 -125z m200 0 l-125 -125 -65 0 -65 0 125 125 125 125 65 0 65 0 -125
-125z m200 0 l-125 -125 -65 0 -65 0 125 125 125 125 65 0 65 0 -125 -125z
m200 0 l-125 -125 -65 0 -65 0 125 125 125 125 65 0 65 0 -125 -125z m200 0
l-125 -125 -65 0 -65 0 125 125 125 125 65 0 65 0 -125 -125z m200 0 l-125
-125 -65 0 -65 0 125 125 125 125 65 0 65 0 -125 -125z m200 0 l-125 -125 -65
0 -65 0 125 125 125 125 65 0 65 0 -125 -125z m200 0 l-125 -125 -65 0 -65 0
125 125 125 125 65 0 65 0 -125 -125z m200 0 l-125 -125 -65 0 -65 0 125 125
125 125 65 0 65 0 -125 -125z m200 0 l-125 -125 -65 0 -65 0 125 125 125 125
65 0 65 0 -125 -125z m200 0 l-125 -125 -65 0 -65 0 125 125 125 125 65 0 65
0 -125 -125z m200 0 l-125 -125 -65 0 -65 0 125 125 125 125 65 0 65 0 -125
-125z m246 94 l16 -32 -93 -93 -94 -94 -65 0 -65 0 125 125 c69 69 133 125
142 125 10 0 25 -14 34 -31z m-3156 -402 c0 -1 -68 -70 -150 -152 l-151 -150
7 70 6 70 81 83 82 82 62 0 c35 0 63 -1 63 -3z m200 0 c0 -1 -115 -117 -256
-257 l-255 -255 6 70 7 70 186 188 187 187 62 0 c35 0 63 -1 63 -3z m-155
-357 c-198 -198 -362 -360 -364 -360 -2 0 -1 30 3 68 l7 67 292 293 292 292
65 0 65 0 -360 -360z m555 357 c0 -1 -210 -211 -466 -467 l-466 -465 6 70 6
70 397 397 398 398 62 0 c35 0 63 -1 63 -3z m200 0 c0 -1 -257 -259 -571 -572
l-571 -570 4 68 4 68 504 504 505 505 62 0 c35 0 63 -1 63 -3z m200 0 c0 -1
-304 -306 -675 -677 l-675 -675 0 65 0 65 612 612 613 613 62 0 c35 0 63 -1
63 -3z m-575 -777 l-780 -780 -3 62 -3 62 718 718 718 718 65 0 65 0 -780
-780z m722 522 c-254 -254 -259 -258 -312 -269 -106 -23 -182 -100 -205 -209
-10 -49 -23 -63 -505 -544 l-495 -495 0 65 0 65 822 822 823 823 65 0 65 0
-258 -258z m177 -23 l-282 -282 -46 19 -46 19 263 263 262 262 65 0 65 0 -281
-281z m146 -54 c-184 -184 -337 -331 -341 -327 -3 4 -16 20 -28 36 l-22 30
298 298 298 298 65 0 65 0 -335 -335z m110 -90 l-425 -425 -3 62 -3 62 363
363 363 363 65 0 65 0 -425 -425z m15 -185 l-610 -610 -3 62 -3 62 548 548
548 548 65 0 65 0 -610 -610z m100 -100 l-710 -710 -3 62 -3 62 648 648 648
648 65 0 65 0 -710 -710z m100 -100 l-810 -810 -3 62 -3 62 748 748 748 748
65 0 65 0 -810 -810z m745 545 l-265 -264 -58 6 -59 6 258 258 259 259 65 0
65 0 -265 -265z m161 -39 l-304 -304 -38 27 -38 26 277 278 277 277 65 0 65 0
-304 -304z m130 -70 l-375 -375 -16 47 -16 47 325 328 326 327 65 0 65 0 -374
-374z m529 351 c0 -16 -146 -168 -540 -562 l-540 -540 0 45 c1 43 3 46 43 66
50 24 102 89 118 147 10 36 68 99 423 455 l411 412 42 0 c38 0 43 -3 43 -23z
m-532 -754 l-543 -543 -3 62 -3 62 543 543 543 543 3 -62 3 -62 -543 -543z m5
-195 l-548 -548 -3 62 -3 62 548 548 548 548 3 -62 3 -62 -548 -548z m5 -195
l-553 -553 -3 62 -3 62 553 553 553 553 3 -62 3 -62 -553 -553z m5 -195 l-558
-558 -3 62 -3 62 558 558 558 558 3 -62 3 -62 -558 -558z m-1383 19 l-475
-477 -3 62 -3 62 473 473 473 473 5 -57 5 -58 -475 -478z m-810 444 l18 -38
-524 -524 -524 -524 0 65 0 65 502 502 c276 276 504 500 507 498 2 -3 12 -22
21 -44z m2155 -700 c-334 -334 -600 -592 -592 -576 8 17 24 62 36 100 l22 70
567 568 567 567 3 -62 3 -62 -606 -605z m-795 609 c0 -3 -227 -232 -504 -509
-470 -470 -505 -503 -510 -478 -19 87 -59 39 471 569 l488 489 28 -33 c15 -18
27 -35 27 -38z m-1275 -12 c19 -13 35 -25 35 -28 0 -3 -261 -266 -580 -585
l-580 -580 0 65 0 65 542 542 c299 299 544 543 546 543 1 0 18 -10 37 -22z
m1356 -28 c5 0 9 -17 9 -38 0 -36 -18 -55 -518 -555 -550 -550 -526 -530 -552
-462 -11 29 -9 31 507 547 312 312 523 516 531 513 8 -3 18 -5 23 -5z m322
-1162 l-1008 -1008 -65 0 -65 0 1070 1070 1070 1070 3 -62 3 -62 -1008 -1008z
m-2215 385 l-603 -603 3 67 3 68 597 598 597 597 3 -62 3 -62 -603 -603z
m1427 28 l-476 -476 -31 34 -30 34 503 503 504 504 3 -62 3 -62 -476 -475z
m893 -508 l-913 -913 -65 0 -65 0 975 975 975 975 3 -62 3 -62 -913 -913z
m-2326 274 l-610 -610 5 69 5 69 602 603 601 602 3 -62 3 -62 -609 -609z
m1490 90 l-420 -420 -33 23 c-19 13 -36 25 -39 27 -2 2 200 208 450 459 l455
454 3 -62 3 -62 -419 -419z m941 -459 l-818 -818 -65 0 -65 0 880 880 880 880
3 -62 3 -62 -818 -818z m-2437 163 l-616 -616 6 70 6 70 607 608 606 607 3
-62 3 -62 -615 -615z m1567 167 l-348 -348 -49 16 -48 17 393 393 394 394 3
-62 3 -62 -348 -348z m975 -425 l-723 -723 -65 0 -65 0 785 785 785 785 3 -62
3 -62 -723 -723z m-2548 53 l-621 -621 6 70 7 70 611 613 612 612 3 -62 3 -62
-621 -620z m1663 262 c-255 -255 -258 -258 -300 -258 -89 0 -94 -6 239 327
l313 313 3 -62 3 -62 -258 -258z m990 -410 l-628 -628 -65 0 -65 0 690 690
690 690 3 -62 3 -62 -628 -628z m-2626 -25 c-494 -495 -607 -603 -629 -603
-25 0 -26 2 -21 43 5 40 29 65 622 660 l616 617 7 -57 8 -58 -603 -602z m1856
546 c-62 -157 -179 -272 -334 -330 l-54 -20 200 200 c109 110 201 199 202 197
2 -2 -4 -23 -14 -47z m875 -616 l-533 -533 -65 0 -65 0 595 595 595 595 3 -62
3 -62 -533 -533z m-2098 561 l13 -46 -524 -524 -524 -524 -65 0 -65 0 570 570
c313 314 573 570 576 570 4 0 12 -21 19 -46z m76 -158 c5 -15 -88 -113 -452
-477 l-459 -459 -65 0 -65 0 500 500 500 500 17 -23 c10 -12 20 -30 24 -41z
m2564 -3 l0 -58 -437 -437 -438 -438 -65 0 -65 0 495 495 c272 272 498 495
502 495 5 0 8 -26 8 -57z m-2867 -525 l-408 -408 -65 0 -65 0 440 440 439 440
33 -32 34 -32 -408 -408z m2877 335 l0 -58 -342 -342 -343 -343 -65 0 -65 0
400 400 c220 220 403 400 407 400 5 0 8 -26 8 -57z m-2370 -22 c0 -3 -161
-167 -357 -363 l-358 -358 -65 0 -65 0 389 389 389 389 34 -25 c18 -14 33 -28
33 -32z m98 -49 l41 -18 -327 -327 -327 -327 -65 0 -65 0 345 345 c190 190
348 345 351 345 4 0 25 -8 47 -18z m327 -332 l-340 -340 -65 0 -65 0 309 309
c263 263 315 311 345 316 20 4 61 17 91 30 30 13 57 24 60 24 3 1 -148 -152
-335 -339z m-171 279 l39 -11 -304 -304 -304 -304 -65 0 -65 0 315 315 c173
173 322 315 330 315 8 0 33 -5 54 -11z m2126 -72 l0 -52 -247 -247 -248 -248
-65 0 -65 0 304 304 c168 168 308 303 313 300 4 -3 8 -29 8 -57z m-2195 -247
l-300 -300 -65 0 -65 0 300 300 300 300 65 0 65 0 -300 -300z m2205 57 l0 -52
-152 -152 -153 -153 -65 0 -65 0 209 209 c116 116 213 208 218 205 4 -3 8 -28
8 -57z m10 -197 c0 -41 -5 -49 -57 -102 l-57 -58 -66 0 -65 0 115 115 c78 78
117 111 122 102 4 -6 8 -32 8 -57z"/>
<path d="M203 4958 c-174 -172 -196 -198 -191 -231 3 -19 32 5 192 163 103
102 192 193 197 203 8 14 5 17 -17 17 -21 0 -60 -33 -181 -152z"/>
<path d="M303 4858 c-140 -139 -264 -265 -275 -281 -10 -15 -18 -37 -16 -50 3
-18 49 23 292 263 158 157 292 293 297 303 8 14 5 17 -17 17 -22 0 -75 -47
-281 -252z"/>
<path d="M402 4758 c-194 -194 -362 -365 -373 -381 -11 -15 -19 -37 -17 -50 4
-18 67 40 392 363 213 212 392 393 397 403 8 14 5 17 -18 17 -22 0 -89 -62
-381 -352z"/>
<path d="M502 4658 c-249 -249 -462 -465 -473 -481 -11 -15 -19 -37 -17 -50 4
-18 84 57 492 463 268 267 492 493 497 503 8 14 5 17 -18 17 -22 0 -104 -76
-481 -452z"/>
<path d="M602 4558 c-304 -304 -562 -565 -573 -581 -11 -15 -19 -37 -17 -50 4
-18 101 75 592 563 323 322 592 593 597 603 8 14 5 17 -18 17 -23 0 -118 -91
-581 -552z"/>
<path d="M702 4458 c-359 -359 -662 -665 -673 -681 -11 -15 -19 -37 -17 -50 4
-18 118 92 692 663 378 377 692 693 697 703 8 14 5 17 -18 17 -23 0 -133 -106
-681 -652z"/>
<path d="M802 4358 c-414 -414 -762 -765 -773 -781 -11 -15 -19 -37 -17 -50 4
-18 136 109 792 763 433 432 792 793 797 803 8 14 5 17 -18 17 -23 0 -148
-120 -781 -752z"/>
<path d="M902 4258 c-469 -469 -862 -865 -873 -881 -11 -15 -19 -37 -17 -50 4
-18 153 126 892 863 488 487 892 893 897 903 8 14 5 17 -18 17 -23 0 -162
-135 -881 -852z"/>
<path d="M4996 150 c-136 -133 -149 -150 -111 -150 18 0 49 23 111 82 102 98
127 130 122 161 -3 19 -19 7 -122 -93z"/>
</g>
</svg>
