<?xml version="1.0" standalone="no"?>
<!DOCTYPE svg PUBLIC "-//W3C//DTD SVG 20010904//EN"
 "http://www.w3.org/TR/2001/REC-SVG-20010904/DTD/svg10.dtd">
<svg version="1.0" xmlns="http://www.w3.org/2000/svg"
 width="1920.000000pt" height="1920.000000pt" viewBox="0 0 1920.000000 1920.000000"
 preserveAspectRatio="xMidYMid meet">
<metadata>
Created by potrace 1.16, written by Peter Selinger 2001-2019
</metadata>
<g transform="translate(0.000000,1920.000000) scale(0.100000,-0.100000)"
fill="#000000" stroke="none">
<path d="M9335 16934 c-27 -4 -139 -16 -270 -30 -108 -12 -441 -103 -542 -150
-30 -13 -56 -24 -58 -24 -3 0 -52 -20 -109 -44 -348 -149 -696 -391 -971 -677
-142 -148 -238 -268 -361 -454 -131 -197 -141 -215 -219 -390 -36 -83 -72
-163 -80 -180 -81 -181 -168 -569 -195 -865 -5 -63 -10 -352 -10 -642 l0 -528
-1482 0 c-1422 0 -1485 -1 -1523 -19 -47 -22 -89 -64 -105 -106 -15 -38 -51
-775 -185 -3745 -20 -432 -51 -1104 -70 -1495 -19 -390 -46 -942 -60 -1225
-14 -283 -36 -749 -50 -1035 -14 -286 -25 -565 -26 -620 0 -102 -44 -1082 -54
-1212 -7 -91 10 -266 35 -359 10 -39 21 -84 24 -100 10 -54 104 -228 170 -314
83 -107 117 -143 195 -205 158 -126 298 -193 481 -231 l118 -24 5648 3 c5101
3 5655 5 5710 19 145 37 323 116 388 173 16 14 50 40 74 58 63 46 110 93 162
162 24 33 55 71 67 84 39 41 130 241 157 346 38 150 47 274 36 487 -25 483
-49 1023 -50 1113 0 55 -11 332 -25 615 -14 283 -38 796 -55 1140 -68 1407
-102 2091 -125 2575 -14 281 -30 647 -35 815 -5 168 -18 492 -30 720 -11 228
-34 696 -50 1040 -54 1100 -58 1185 -68 1211 -16 42 -63 91 -107 110 -38 18
-106 19 -1522 19 l-1483 0 0 528 c0 290 -5 579 -10 642 -27 294 -115 685 -195
865 -174 389 -157 357 -299 570 -135 204 -225 314 -396 486 -147 148 -308 283
-435 366 -203 131 -248 159 -340 205 -55 28 -116 56 -135 64 -19 7 -73 29
-120 49 -201 87 -487 164 -705 191 -131 16 -632 28 -710 18z m525 -415 c63 -6
173 -22 245 -36 71 -14 143 -27 159 -29 88 -11 359 -116 550 -213 398 -203
725 -489 988 -866 120 -171 305 -544 333 -669 2 -11 14 -52 25 -91 11 -38 32
-122 46 -185 55 -252 57 -275 61 -897 l5 -583 -2671 0 -2671 0 0 513 c0 706 3
737 134 1237 18 70 91 240 154 360 43 80 80 153 85 164 4 10 42 69 84 130 226
329 475 570 800 774 211 133 625 310 764 328 14 2 81 14 150 28 259 51 470 61
759 35z m-3342 -4495 l-3 -515 -60 -24 c-183 -75 -317 -223 -383 -423 -33
-101 -37 -293 -9 -387 25 -79 80 -188 125 -248 79 -103 238 -206 372 -238 81
-20 270 -17 350 5 130 37 257 119 342 222 54 65 125 215 144 306 42 196 -26
445 -162 597 -54 60 -160 133 -239 166 l-60 24 -3 515 -2 516 2670 0 2670 0
-2 -516 -3 -515 -58 -23 c-240 -98 -398 -325 -414 -596 -7 -122 12 -211 70
-333 68 -143 160 -240 297 -311 98 -52 177 -70 310 -70 135 -1 195 12 305 64
177 86 299 232 362 435 28 91 25 276 -6 375 -63 206 -200 359 -386 435 l-60
24 -3 515 -2 516 1359 0 1360 0 5 -32 c8 -49 96 -1958 96 -2064 0 -50 16 -417
35 -815 19 -398 51 -1048 70 -1444 55 -1128 84 -1716 105 -2160 12 -225 25
-552 30 -725 6 -173 28 -673 49 -1110 40 -825 40 -877 5 -984 -103 -310 -341
-502 -661 -536 -67 -7 -1857 -10 -5603 -8 l-5505 3 -78 22 c-224 64 -411 217
-496 406 -84 186 -84 195 -51 887 34 686 55 1174 70 1570 5 157 19 465 30 685
11 220 42 868 70 1440 28 572 59 1218 70 1435 10 217 28 611 40 875 60 1410
110 2481 116 2523 l5 32 1360 0 1359 0 -2 -516z m309 -918 c96 -45 173 -156
173 -250 0 -97 -63 -196 -154 -243 -69 -36 -169 -37 -239 -4 -89 43 -157 150
-157 247 0 42 25 110 57 156 26 38 111 101 148 111 52 13 122 6 172 -17z
m5785 -20 c82 -54 138 -148 138 -230 0 -97 -68 -204 -157 -247 -70 -33 -170
-32 -239 4 -122 62 -181 199 -139 318 23 66 62 115 119 153 64 42 76 46 157
42 57 -3 74 -8 121 -40z"/>
<path d="M9505 9208 c-36 -19 -66 -52 -88 -93 -18 -34 -22 -62 -25 -181 l-4
-141 -77 -7 c-42 -4 -119 -16 -171 -27 -52 -11 -106 -22 -120 -24 -46 -7 -184
-65 -265 -112 -180 -104 -291 -208 -394 -368 -134 -209 -170 -538 -85 -792 75
-226 205 -364 483 -513 153 -83 353 -147 751 -243 347 -84 356 -87 510 -134
153 -47 162 -51 305 -119 161 -77 249 -167 302 -310 48 -132 40 -308 -21 -439
-21 -47 -116 -168 -161 -207 -191 -167 -601 -260 -955 -218 -354 42 -654 184
-799 377 -66 88 -102 157 -142 271 -40 118 -63 151 -119 180 -89 45 -231 20
-280 -49 -57 -79 -60 -155 -14 -295 125 -373 409 -659 787 -793 49 -17 107
-33 129 -36 22 -3 68 -11 102 -19 33 -8 100 -19 149 -26 l87 -12 0 -117 c1
-177 22 -239 98 -292 30 -20 48 -24 112 -24 87 0 127 20 171 83 22 33 24 46
27 188 l3 152 87 7 c191 15 410 71 547 139 260 129 423 277 539 488 118 214
155 499 97 743 -82 340 -354 583 -830 739 -171 56 -241 77 -276 80 -12 2 -99
22 -195 45 -699 171 -893 243 -1002 370 -163 190 -139 518 49 690 317 291
1108 308 1449 32 101 -82 177 -194 223 -331 30 -88 63 -132 120 -164 108 -58
253 -20 301 79 35 73 36 119 5 226 -35 119 -73 194 -145 289 -194 252 -464
406 -808 461 -76 12 -143 23 -149 25 -10 3 -13 41 -13 149 0 115 -3 153 -16
178 -21 42 -52 75 -86 93 -32 17 -164 18 -193 2z"/>
</g>
</svg>
